<svg xmlns="http://www.w3.org/2000/svg" viewBox="4126 24 24 24">
  <defs>
    <style>
      .cls-1 {
        fill: #4d4f5c;
      }

      .cls-2 {
        fill: #fff;
      }
    </style>
  </defs>
  <g id="export_excel" transform="translate(2842 8)">
    <rect id="bg" class="cls-1" width="24" height="24" rx="3" transform="translate(1284 16)"/>
    <g id="excel" transform="translate(1289.647 19.529)">
      <path id="Path_360" data-name="Path 360" class="cls-2" d="M81.608,3.018,78.689.1A.338.338,0,0,0,78.45,0H69.692a.337.337,0,0,0-.337.337V16.6a.337.337,0,0,0,.337.337H81.369a.337.337,0,0,0,.337-.337V3.257A.338.338,0,0,0,81.608,3.018Zm-2.82-1.866,1.767,1.767H78.787Zm2.244,15.114h-11V.675h8.082V3.257a.337.337,0,0,0,.337.337h2.582Z" transform="translate(-69.355)"/>
      <path id="Path_361" data-name="Path 361" class="cls-2" d="M114.852,454.884h-5.383a.337.337,0,0,0,0,.675h5.383a.337.337,0,1,0,0-.675Z" transform="translate(-107.816 -439.833)"/>
      <path id="Path_362" data-name="Path 362" class="cls-2" d="M313.464,454.884H313.1a.337.337,0,1,0,0,.675h.366a.337.337,0,1,0,0-.675Z" transform="translate(-304.706 -439.833)"/>
      <path id="Path_363" data-name="Path 363" class="cls-2" d="M128.651,156.633l2.506-3.095a.337.337,0,0,0-.262-.55h-2.811a.337.337,0,0,0-.262.125l-1.01,1.248-1.01-1.248a.337.337,0,0,0-.262-.125h-2.811a.337.337,0,0,0-.262.55l2.506,3.095-2.506,3.095a.337.337,0,0,0,.262.55h2.811a.337.337,0,0,0,.262-.125l1.01-1.248,1.01,1.248a.337.337,0,0,0,.262.125h2.811a.337.337,0,0,0,.262-.55Zm-.406-2.97h1.942l-1.971,2.433-.971-1.2Zm-2.867,5.94h-1.942l1.97-2.433.971,1.2Zm2.867,0-4.809-5.94h1.942l4.809,5.94Z" transform="translate(-120.635 -147.926)"/>
    </g>
  </g>
</svg>
