<svg xmlns="http://www.w3.org/2000/svg" viewBox="26 269 24 16.132">
  <defs>
    <style>
      .cls-1 {
        fill: #1fdee5;
      }
    </style>
  </defs>
  <g id="ic_performance" transform="translate(26 185.071)">
    <path id="Path_359" data-name="Path 359" class="cls-1" d="M23.522,99.1h-.956V85.492a.478.478,0,0,0-.478-.478H19.118a.478.478,0,0,0-.478.478V99.1H17.455V93.01a.478.478,0,0,0-.478-.478H14.008a.478.478,0,0,0-.478.478V99.1H11.384V88.659a.478.478,0,0,0-.478-.478H7.936a.478.478,0,0,0-.478.478V99.1H6.22V91.1a.478.478,0,0,0-.478-.478H2.773a.478.478,0,0,0-.478.478V99.1H.956v-14.7a.478.478,0,0,0-.956,0V99.583a.478.478,0,0,0,.478.478H23.522a.478.478,0,1,0,0-.956ZM3.251,91.576H4.726L3.251,93.051ZM5.264,99.1H3.713l1.551-1.551V99.1Zm0-2.9L3.251,98.214V96.985l2.013-2.013V96.2Zm0-2.582L3.251,95.633V94.4L5.264,92.39V93.62ZM10.428,99.1H8.414V89.138h2.013Zm4.058-5.616h1.905l-1.905,1.906Zm0,3.258L16.5,94.733v1.229l-2.013,2.013ZM16.5,99.1h-1.79l1.79-1.79Zm5.11,0H19.6V85.97H21.61Z"/>
  </g>
</svg>
