<svg xmlns="http://www.w3.org/2000/svg" viewBox="26 316 24 24">
  <defs>
    <style>
      .cls-1 {
        fill: #1fdee5;
      }
    </style>
  </defs>
  <g id="ic_preferences" transform="translate(26 316)">
    <path id="Path_4" data-name="Path 4" class="cls-1" d="M95.552,85.272a.375.375,0,0,0-.229.479,7.506,7.506,0,1,1-2.217-3.216.375.375,0,1,0,.486-.571A8.229,8.229,0,1,0,96.031,85.5.375.375,0,0,0,95.552,85.272Z" transform="translate(-76.25 -76.25)"/>
    <path id="Path_5" data-name="Path 5" class="cls-1" d="M380.551,145.35a.375.375,0,1,0,.638-.393,8.3,8.3,0,0,0-.547-.783.375.375,0,0,0-.589.465A7.545,7.545,0,0,1,380.551,145.35Z" transform="translate(-362.161 -137.28)"/>
    <path id="Path_6" data-name="Path 6" class="cls-1" d="M22.5,9.75h-.628a10.008,10.008,0,0,0-1.3-3.14l.443-.443a1.5,1.5,0,0,0,0-2.121L19.955,2.984a1.5,1.5,0,0,0-2.121,0l-.443.443a10.007,10.007,0,0,0-3.14-1.3V1.5A1.5,1.5,0,0,0,12.75,0h-1.5a1.5,1.5,0,0,0-1.5,1.5v.628a10.008,10.008,0,0,0-3.14,1.3l-.443-.443a1.5,1.5,0,0,0-2.121,0L2.984,4.045a1.5,1.5,0,0,0,0,2.121l.443.443a10.009,10.009,0,0,0-1.3,3.14H1.5A1.5,1.5,0,0,0,0,11.25v1.5a1.5,1.5,0,0,0,1.5,1.5h.628a10.008,10.008,0,0,0,1.3,3.14l-.443.443a1.5,1.5,0,0,0,0,2.121l1.061,1.061a1.5,1.5,0,0,0,2.121,0l.443-.443a10.006,10.006,0,0,0,3.14,1.3V22.5a1.5,1.5,0,0,0,1.5,1.5h1.5a1.5,1.5,0,0,0,1.5-1.5v-.628a10.007,10.007,0,0,0,3.14-1.3l.443.443a1.5,1.5,0,0,0,2.121,0l1.061-1.061a1.5,1.5,0,0,0,0-2.121l-.443-.443a10.008,10.008,0,0,0,1.3-3.14H22.5a1.5,1.5,0,0,0,1.5-1.5v-1.5A1.5,1.5,0,0,0,22.5,9.75Zm.75,3a.751.751,0,0,1-.75.75h-.932a.375.375,0,0,0-.368.3,9.278,9.278,0,0,1-1.419,3.427.375.375,0,0,0,.046.475l.658.659a.751.751,0,0,1,0,1.061l-1.061,1.061a.751.751,0,0,1-1.061,0l-.659-.659a.375.375,0,0,0-.475-.046A9.278,9.278,0,0,1,13.8,21.2a.375.375,0,0,0-.3.368V22.5a.751.751,0,0,1-.75.75h-1.5a.751.751,0,0,1-.75-.75v-.932a.375.375,0,0,0-.3-.368,9.278,9.278,0,0,1-3.427-1.419.375.375,0,0,0-.475.046l-.659.659a.751.751,0,0,1-1.061,0L3.515,19.425a.751.751,0,0,1,0-1.061l.659-.659a.375.375,0,0,0,.046-.475A9.278,9.278,0,0,1,2.8,13.8a.375.375,0,0,0-.368-.3H1.5a.751.751,0,0,1-.75-.75v-1.5a.751.751,0,0,1,.75-.75h.932a.375.375,0,0,0,.368-.3A9.279,9.279,0,0,1,4.219,6.769a.375.375,0,0,0-.046-.475l-.658-.659a.751.751,0,0,1,0-1.061L4.575,3.515a.751.751,0,0,1,1.061,0l.658.659a.375.375,0,0,0,.475.046A9.277,9.277,0,0,1,10.2,2.8a.375.375,0,0,0,.3-.368V1.5a.751.751,0,0,1,.75-.75h1.5a.751.751,0,0,1,.75.75v.932a.375.375,0,0,0,.3.368,9.279,9.279,0,0,1,3.427,1.419.375.375,0,0,0,.475-.046l.659-.659a.751.751,0,0,1,1.061,0l1.061,1.061a.751.751,0,0,1,0,1.061l-.658.658a.375.375,0,0,0-.046.475A9.277,9.277,0,0,1,21.2,10.2a.375.375,0,0,0,.368.3H22.5a.751.751,0,0,1,.75.75Z"/>
    <path id="Path_7" data-name="Path 7" class="cls-1" d="M154.759,143.493l-1.4.363-.007,0A1.937,1.937,0,0,0,152,145.712v.405a.837.837,0,0,0,.865.8h8.025a.837.837,0,0,0,.865-.8v-.405a1.937,1.937,0,0,0-1.355-1.854l-.007,0-1.4-.363a.5.5,0,0,1-.232-.128v-.76l0,0a3.254,3.254,0,0,0,.743-2.089v-.566a5.246,5.246,0,0,0-.032-3.3l0,0-.011-.022-.007-.012-.012-.018-.009-.014-.011-.014-.013-.015-.01-.01-.016-.016-.009-.008-.018-.015-.011-.008-.018-.012-.015-.008-.016-.009-.019-.008-.014-.006-.021-.007-.013,0-.021,0-.015,0-.019,0-.018,0h-.051l-.025,0h0a3.686,3.686,0,0,1-1.269-.166,2.969,2.969,0,0,0-2.572.168,1.521,1.521,0,0,0-1.348,1.626,10.585,10.585,0,0,0,.372,2.073v.313a3.385,3.385,0,0,0,.728,2.113v.812A.5.5,0,0,1,154.759,143.493Zm.255-3.182a4.619,4.619,0,0,1,.276-1.263,11.03,11.03,0,0,1,3.47.628v.834a2.5,2.5,0,0,1-.636,1.686l0,0a1.7,1.7,0,0,1-1.238.58,2.2,2.2,0,0,1-1.868-2.34v-.128Zm.728,2.9a2.238,2.238,0,0,0,1.14.321,2.308,2.308,0,0,0,1.132-.3v.137a.728.728,0,0,0,.171.469l-1.306.771-1.3-.78a.725.725,0,0,0,.163-.458Zm-2.876,2.961c-.077,0-.115-.044-.115-.054v-.405a1.175,1.175,0,0,1,.8-1.131l1.27-.33,1.678,1.007v.912Zm8.14-.46v.405c0,.01-.038.054-.115.054h-3.638v-.91l1.7-1,1.248.324A1.175,1.175,0,0,1,161.005,145.711Zm-5.63-8.54h0l.034,0h.011l.026,0,.014,0,.022-.006.015-.005.02-.007.015-.007.018-.009.017-.01.015-.009.02-.015.009-.007c.552-.451,1.268-.279,2.026-.1a5.51,5.51,0,0,0,1.234.2,4.612,4.612,0,0,1,.091,1.764,11.765,11.765,0,0,0-3.934-.656h-.04l-.023,0-.014,0-.017,0-.019.005-.011,0-.023.009-.008,0-.024.012-.013.008-.017.011-.021.016-.008.006-.023.021,0,0-.019.021-.005.006-.014.018-.009.012-.009.014-.011.018-.005.011-.007.015a3.409,3.409,0,0,1-.042-.468C154.642,137.646,154.834,137.171,155.375,137.171Z" transform="translate(-144.875 -129.671)"/>
  </g>
</svg>
