<svg xmlns="http://www.w3.org/2000/svg" viewBox="26 166 24 24">
  <defs>
    <style>
      .cls-1 {
        fill: #1fdee5;
      }
    </style>
  </defs>
  <g id="ic_todo" transform="translate(26 166)">
    <path id="Path_8" data-name="Path 8" class="cls-1" d="M20.485,3.515A12,12,0,1,0,3.515,20.485,12,12,0,0,0,20.485,3.515ZM12,23.044A11.044,11.044,0,1,1,23.044,12,11.056,11.056,0,0,1,12,23.044Z"/>
    <path id="Path_9" data-name="Path 9" class="cls-1" d="M105.358,136.156a1.675,1.675,0,0,0-2.366,0l-7.04,7.04-2.307-2.307a1.673,1.673,0,1,0-2.366,2.366l3.49,3.49a1.673,1.673,0,0,0,2.366,0l8.223-8.223A1.675,1.675,0,0,0,105.358,136.156Zm-.676,1.69-8.223,8.223a.717.717,0,0,1-1.014,0l-3.49-3.49a.717.717,0,0,1,1.014-1.014l2.645,2.645a.478.478,0,0,0,.676,0l7.378-7.378a.717.717,0,1,1,1.014,1.014Z" transform="translate(-86.534 -129.307)"/>
    <path id="Path_10" data-name="Path 10" class="cls-1" d="M255.941,297.829a.478.478,0,0,0-.581.345,9.361,9.361,0,0,1-9.081,7.05.478.478,0,1,0,0,.956,10.316,10.316,0,0,0,10.008-7.77A.478.478,0,0,0,255.941,297.829Z" transform="translate(-234.279 -283.854)"/>
    <path id="Path_11" data-name="Path 11" class="cls-1" d="M456.195,245.8a.478.478,0,0,0-.478.478c0,.137,0,.274-.009.41a.478.478,0,0,0,.457.5h.021a.478.478,0,0,0,.477-.457c.006-.149.01-.3.01-.451A.478.478,0,0,0,456.195,245.8Z" transform="translate(-434.346 -234.28)"/>
  </g>
</svg>
