<svg xmlns="http://www.w3.org/2000/svg" viewBox="26 220 24 18.072">
  <defs>
    <style>
      .cls-1 {
        fill: #1fdee5;
      }
    </style>
  </defs>
  <g id="ic_wmt" transform="translate(26 156.765)">
    <path id="Path_12" data-name="Path 12" class="cls-1" d="M22.326,66.2H16.351V65.155a1.923,1.923,0,0,0-1.92-1.92H9.57a1.923,1.923,0,0,0-1.92,1.92V66.2H1.674A1.676,1.676,0,0,0,0,67.872V79.633a1.676,1.676,0,0,0,1.674,1.674H22.326A1.676,1.676,0,0,0,24,79.633V67.872A1.676,1.676,0,0,0,22.326,66.2ZM8.606,65.155a.965.965,0,0,1,.964-.964H14.43a.965.965,0,0,1,.964.964V66.2H8.606ZM23.044,79.633a.718.718,0,0,1-.718.718H1.674a.718.718,0,0,1-.718-.718V70.408l7.34,3.56a1.915,1.915,0,0,0,1.887,1.6h3.633a1.915,1.915,0,0,0,1.887-1.6l4.585-2.224a.478.478,0,0,0-.417-.86L15.6,72.957a1.915,1.915,0,0,0-1.779-1.212H10.183A1.915,1.915,0,0,0,8.4,72.957L.956,69.345V67.872a.718.718,0,0,1,.718-.718H22.326a.718.718,0,0,1,.718.718V79.633ZM9.227,73.657a.957.957,0,0,1,.956-.956h3.633a.956.956,0,1,1,0,1.912H10.183A.957.957,0,0,1,9.227,73.657Z" transform="translate(0)"/>
    <path id="Path_13" data-name="Path 13" class="cls-1" d="M453.024,206.292a.478.478,0,0,0-.639-.222l-.293.142a.478.478,0,1,0,.417.86l.293-.142A.478.478,0,0,0,453.024,206.292Z" transform="translate(-430.643 -136.094)"/>
  </g>
</svg>
