<svg xmlns="http://www.w3.org/2000/svg" viewBox="12937 3123 13 13.001">
  <defs>
    <style>
      .cls-1 {
        fill: none;
      }

      .cls-2, .cls-3 {
        stroke: none;
      }

      .cls-3 {
        fill: #fff;
      }
    </style>
  </defs>
  <g id="dashboard" class="cls-1" transform="translate(25823 6245.999)">
    <path class="cls-2" d="M-12876.714-3110v-3.715h3.714V-3110Zm-4.644,0v-3.715h3.716V-3110Zm-4.643,0v-3.715h3.715V-3110Zm9.286-4.643v-3.715h3.714v3.715Zm-4.644,0v-3.715h3.716v3.715Zm-4.643,0v-3.715h3.715v3.715Zm9.286-4.643V-3123h3.714v3.715Zm-4.644,0V-3123h3.716v3.715Zm-4.643,0V-3123h3.715v3.715Z"/>
    <path class="cls-3" d="M -12873.75 -3110.74853515625 L -12873.75 -3112.963623046875 L -12875.9638671875 -3112.963623046875 L -12875.9638671875 -3110.74853515625 L -12873.75 -3110.74853515625 M -12878.3916015625 -3110.74853515625 L -12878.3916015625 -3112.963623046875 L -12880.607421875 -3112.963623046875 L -12880.607421875 -3110.74853515625 L -12878.3916015625 -3110.74853515625 M -12883.03515625 -3110.74853515625 L -12883.03515625 -3112.963623046875 L -12885.25 -3112.963623046875 L -12885.25 -3110.74853515625 L -12883.03515625 -3110.74853515625 M -12873.75 -3115.3916015625 L -12873.75 -3117.6064453125 L -12875.9638671875 -3117.6064453125 L -12875.9638671875 -3115.3916015625 L -12873.75 -3115.3916015625 M -12878.3916015625 -3115.3916015625 L -12878.3916015625 -3117.6064453125 L -12880.607421875 -3117.6064453125 L -12880.607421875 -3115.3916015625 L -12878.3916015625 -3115.3916015625 M -12883.03515625 -3115.3916015625 L -12883.03515625 -3117.6064453125 L -12885.25 -3117.6064453125 L -12885.25 -3115.3916015625 L -12883.03515625 -3115.3916015625 M -12873.75 -3120.034423828125 L -12873.75 -3122.249267578125 L -12875.9638671875 -3122.249267578125 L -12875.9638671875 -3120.034423828125 L -12873.75 -3120.034423828125 M -12878.3916015625 -3120.034423828125 L -12878.3916015625 -3122.249267578125 L -12880.607421875 -3122.249267578125 L -12880.607421875 -3120.034423828125 L -12878.3916015625 -3120.034423828125 M -12883.03515625 -3120.034423828125 L -12883.03515625 -3122.249267578125 L -12885.25 -3122.249267578125 L -12885.25 -3120.034423828125 L -12883.03515625 -3120.034423828125 M -12873 -3109.99853515625 L -12876.7138671875 -3109.99853515625 L -12876.7138671875 -3113.713623046875 L -12873 -3113.713623046875 L -12873 -3109.99853515625 Z M -12877.6416015625 -3109.99853515625 L -12881.357421875 -3109.99853515625 L -12881.357421875 -3113.713623046875 L -12877.6416015625 -3113.713623046875 L -12877.6416015625 -3109.99853515625 Z M -12882.28515625 -3109.99853515625 L -12886 -3109.99853515625 L -12886 -3113.713623046875 L -12882.28515625 -3113.713623046875 L -12882.28515625 -3109.99853515625 Z M -12873 -3114.6416015625 L -12876.7138671875 -3114.6416015625 L -12876.7138671875 -3118.3564453125 L -12873 -3118.3564453125 L -12873 -3114.6416015625 Z M -12877.6416015625 -3114.6416015625 L -12881.357421875 -3114.6416015625 L -12881.357421875 -3118.3564453125 L -12877.6416015625 -3118.3564453125 L -12877.6416015625 -3114.6416015625 Z M -12882.28515625 -3114.6416015625 L -12886 -3114.6416015625 L -12886 -3118.3564453125 L -12882.28515625 -3118.3564453125 L -12882.28515625 -3114.6416015625 Z M -12873 -3119.284423828125 L -12876.7138671875 -3119.284423828125 L -12876.7138671875 -3122.999267578125 L -12873 -3122.999267578125 L -12873 -3119.284423828125 Z M -12877.6416015625 -3119.284423828125 L -12881.357421875 -3119.284423828125 L -12881.357421875 -3122.999267578125 L -12877.6416015625 -3122.999267578125 L -12877.6416015625 -3119.284423828125 Z M -12882.28515625 -3119.284423828125 L -12886 -3119.284423828125 L -12886 -3122.999267578125 L -12882.28515625 -3122.999267578125 L -12882.28515625 -3119.284423828125 Z"/>
  </g>
</svg>
