<svg xmlns="http://www.w3.org/2000/svg" viewBox="4119 29 13 17">
  <defs>
    <style>
      .cls-1 {
        fill: #fff;
      }
    </style>
  </defs>
  <g id="excel" transform="translate(4119 29)">
    <path id="Path_360" data-name="Path 360" class="cls-1" d="M82.251,3.028,79.179.1a.364.364,0,0,0-.251-.1H69.71a.347.347,0,0,0-.355.339V16.661A.347.347,0,0,0,69.71,17H82a.347.347,0,0,0,.355-.339V3.268A.331.331,0,0,0,82.251,3.028ZM79.283,1.156l1.86,1.773h-1.86Zm2.362,15.166H70.065V.677h8.507V3.268a.347.347,0,0,0,.355.339h2.717Z" transform="translate(-69.355)"/>
    <path id="Path_361" data-name="Path 361" class="cls-1" d="M115.153,454.884h-5.665a.339.339,0,1,0,0,.677h5.665a.339.339,0,1,0,0-.677Z" transform="translate(-107.747 -439.78)"/>
    <path id="Path_362" data-name="Path 362" class="cls-1" d="M313.5,454.884h-.385a.339.339,0,1,0,0,.677h.385a.339.339,0,1,0,0-.677Z" transform="translate(-304.283 -439.78)"/>
    <path id="Path_363" data-name="Path 363" class="cls-1" d="M128.979,156.645l2.638-3.106a.326.326,0,0,0,.044-.359.357.357,0,0,0-.321-.193h-2.958a.362.362,0,0,0-.276.126l-1.063,1.252-1.063-1.252a.362.362,0,0,0-.276-.126h-2.958a.357.357,0,0,0-.321.193.326.326,0,0,0,.045.359l2.638,3.106-2.638,3.106a.326.326,0,0,0-.045.359.357.357,0,0,0,.321.193H125.7a.362.362,0,0,0,.276-.126l1.063-1.252,1.063,1.252a.362.362,0,0,0,.276.126h2.959a.357.357,0,0,0,.321-.193.326.326,0,0,0-.045-.359Zm-.428-2.98H130.6l-2.074,2.442-1.022-1.2Zm-3.017,5.96H123.49l2.074-2.442,1.022,1.2Zm3.017,0-5.062-5.96h2.044l5.062,5.96Z" transform="translate(-120.543 -147.908)"/>
  </g>
</svg>
