<svg xmlns="http://www.w3.org/2000/svg" viewBox="4159 29 13 17">
  <defs>
    <style>
      .cls-1 {
        fill: #fff;
      }
    </style>
  </defs>
  <g id="filter_checked_cases" data-name="filter checked cases" transform="translate(4108 31)">
    <path id="Path_364" data-name="Path 364" class="cls-1" d="M83.165,0H70.879a.348.348,0,0,0-.357.339V16.661a.348.348,0,0,0,.357.339h9.342a.368.368,0,0,0,.253-.1l2.944-2.789a.33.33,0,0,0,.1-.239V.339A.348.348,0,0,0,83.165,0ZM80.578,15.844l0-1.636H82.3Zm2.229-2.311-2.588,0h0a.368.368,0,0,0-.253.1.33.33,0,0,0-.1.24l0,2.452H71.237V.677h11.57Z" transform="translate(-19.522 -2)"/>
    <path id="Path_365" data-name="Path 365" class="cls-1" d="M127.362,82.908a.372.372,0,0,0-.505,0l-1.052,1-.261-.247a.372.372,0,0,0-.505,0,.326.326,0,0,0,0,.479l.514.487a.372.372,0,0,0,.505,0l1.3-1.236A.326.326,0,0,0,127.362,82.908Z" transform="translate(-72.027 -82.059)"/>
    <path id="Path_366" data-name="Path 366" class="cls-1" d="M363.575,106.124h-.125a.339.339,0,1,0,0,.677h.125a.339.339,0,1,0,0-.677Z" transform="translate(-301.839 -104.6)"/>
    <path id="Path_367" data-name="Path 367" class="cls-1" d="M220.615,106.124h-4a.339.339,0,1,0,0,.677h4a.339.339,0,1,0,0-.677Z" transform="translate(-160.149 -104.6)"/>
    <path id="Path_368" data-name="Path 368" class="cls-1" d="M127.362,181.644a.372.372,0,0,0-.505,0l-1.052,1-.261-.247a.372.372,0,0,0-.505,0,.326.326,0,0,0,0,.479l.514.487a.372.372,0,0,0,.505,0l1.3-1.236A.326.326,0,0,0,127.362,181.644Z" transform="translate(-72.027 -177.517)"/>
    <path id="Path_369" data-name="Path 369" class="cls-1" d="M221.885,204.859h-5.271a.339.339,0,1,0,0,.677h5.271a.339.339,0,1,0,0-.677Z" transform="translate(-160.149 -200.057)"/>
    <path id="Path_370" data-name="Path 370" class="cls-1" d="M127.362,280.066a.372.372,0,0,0-.505,0l-1.052,1-.261-.247a.372.372,0,0,0-.505,0,.326.326,0,0,0,0,.479l.514.487a.372.372,0,0,0,.505,0l1.3-1.236A.326.326,0,0,0,127.362,280.066Z" transform="translate(-72.027 -272.671)"/>
    <path id="Path_371" data-name="Path 371" class="cls-1" d="M221.885,303.281h-5.271a.339.339,0,1,0,0,.677h5.271a.339.339,0,1,0,0-.677Z" transform="translate(-160.149 -295.211)"/>
  </g>
</svg>
