<svg xmlns="http://www.w3.org/2000/svg" viewBox="8451 2038 14.612 14.181">
  <defs>
    <style>
      .cls-1, .cls-4 {
        fill: #fff;
      }

      .cls-2 {
        fill: none;
      }

      .cls-3, .cls-4 {
        stroke: none;
      }
    </style>
  </defs>
  <g id="financial_risk" data-name="financial risk" transform="translate(8047 1556.409)">
    <g id="noun_45950_cc" transform="translate(375 480)">
      <path id="Path_451" data-name="Path 451" class="cls-1" d="M3.871,0A3.03,3.03,0,0,0,.849,3.022a8.128,8.128,0,0,0,.61,2.532H.5v.5H1.591c.007.035.015.07.021.105.16.947.034,1.909-1.465,3.408L0,9.72v1.052H7.405V9.762H1.341a4.5,4.5,0,0,0,1.275-3.7H4.039v-.5H2.517a13.039,13.039,0,0,1-.657-2.532A2.007,2.007,0,0,1,3.871,1.01a2.321,2.321,0,0,1,1.465.46A1.473,1.473,0,0,1,5.89,2.693H6.9A2.559,2.559,0,0,0,5.972.686,3.3,3.3,0,0,0,3.871,0Z" transform="translate(29 5)"/>
    </g>
    <g id="Path_452" data-name="Path 452" class="cls-2" transform="translate(411.203 481.591)">
      <path class="cls-3" d="M3.7,0A3.7,3.7,0,1,1,0,3.7,3.7,3.7,0,0,1,3.7,0Z"/>
      <path class="cls-4" d="M 3.704712152481079 6.659421920776367 C 5.33394193649292 6.659421920776367 6.659421920776367 5.33394193649292 6.659421920776367 3.704712152481079 C 6.659421920776367 2.075482130050659 5.33394193649292 0.7500021457672119 3.704712152481079 0.7500021457672119 C 2.075482130050659 0.7500021457672119 0.7500021457672119 2.075482130050659 0.7500021457672119 3.704712152481079 C 0.7500021457672119 5.33394193649292 2.075482130050659 6.659421920776367 3.704712152481079 6.659421920776367 M 3.704712152481079 7.409421920776367 C 1.658652186393738 7.409421920776367 2.15248110180255e-06 5.750771999359131 2.15248110180255e-06 3.704712152481079 C 2.15248110180255e-06 1.658652186393738 1.658652186393738 2.15248110180255e-06 3.704712152481079 2.15248110180255e-06 C 5.750771999359131 2.15248110180255e-06 7.409421920776367 1.658652186393738 7.409421920776367 3.704712152481079 C 7.409421920776367 5.750771999359131 5.750771999359131 7.409421920776367 3.704712152481079 7.409421920776367 Z"/>
    </g>
    <g id="Group_6639" data-name="Group 6639" transform="translate(-20.358 12.221)">
      <rect id="Rectangle_8104" data-name="Rectangle 8104" class="cls-1" width="0.608" height="3.341" transform="translate(435 471)"/>
      <rect id="Rectangle_8105" data-name="Rectangle 8105" class="cls-1" width="0.608" height="0.477" transform="translate(435 474.819)"/>
    </g>
  </g>
</svg>
