<svg xmlns="http://www.w3.org/2000/svg" viewBox="8331.577 2038 14.845 14.065">
  <defs>
    <style>
      .cls-1 {
        fill: none;
        stroke: #fff;
        stroke-width: 0.75px;
      }

      .cls-2 {
        fill: #fff;
      }
    </style>
  </defs>
  <g id="hide-dashboard" transform="translate(8358.309 2118.305)">
    <path id="Path_438" data-name="Path 438" class="cls-1" d="M23.516,29.333a7.129,7.129,0,0,0-2.838-2.89l-1.644,2.22a2.546,2.546,0,0,1-2.623,3.544l-1.185,1.6a8.191,8.191,0,0,0,1.465.136,7.667,7.667,0,0,0,6.825-3.935l.175-.338ZM12.7,32.9l1.644-2.22a2.546,2.546,0,0,1,2.623-3.544l1.185-1.6a8.192,8.192,0,0,0-1.465-.135,7.667,7.667,0,0,0-6.825,3.934l-.175.338.175.338A7.131,7.131,0,0,0,12.7,32.9Z" transform="translate(-36 -103.293)"/>
    <path id="Path_439" data-name="Path 439" class="cls-2" d="M26.766,7.695,16.7,21.361l.726.367.063.032L27.3,8Z" transform="translate(-41.64 -88)"/>
  </g>
</svg>
