<svg xmlns="http://www.w3.org/2000/svg" viewBox="11631 2339 24 24">
  <defs>
    <style>
      .cls-1 {
        fill: #1fdee5;
      }
    </style>
  </defs>
  <path id="internet" class="cls-1" d="M20.974,19.954a11.968,11.968,0,0,0-.232-16.161h0l-.005-.005A11.966,11.966,0,0,0,12.416.011h0L12.182,0c-.06,0-.121,0-.182,0s-.121,0-.182,0L11.585.01h0A11.966,11.966,0,0,0,3.264,3.787s0,0-.005.005h0a11.967,11.967,0,0,0-.232,16.161s0,.008.005.012.018.015.026.025a11.973,11.973,0,0,0,8.527,4h0l.233.006c.061,0,.121,0,.182,0s.121,0,.182,0l.233-.006h0a11.972,11.972,0,0,0,8.534-4.008c.005-.007.014-.009.019-.017S20.972,19.958,20.974,19.954ZM.838,12.414H5.8a15.292,15.292,0,0,0,1,5.055,15.258,15.258,0,0,0-3.356,1.709A11.121,11.121,0,0,1,.838,12.414ZM3.674,4.561A15.221,15.221,0,0,0,6.943,6.168,15.28,15.28,0,0,0,5.8,11.586H.838A11.124,11.124,0,0,1,3.674,4.561Zm19.488,7.025H18.2a15.28,15.28,0,0,0-1.138-5.419,15.221,15.221,0,0,0,3.269-1.606A11.124,11.124,0,0,1,23.162,11.586ZM11.586,6.192a14.466,14.466,0,0,1-3.505-.531,14.478,14.478,0,0,1,3.505-4.567Zm0,.828v4.567H6.632a14.452,14.452,0,0,1,1.1-5.162A15.289,15.289,0,0,0,11.586,7.019Zm.828,0a15.276,15.276,0,0,0,3.851-.6,14.452,14.452,0,0,1,1.1,5.162H12.414Zm0-.828v-5.1a14.478,14.478,0,0,1,3.505,4.567A14.466,14.466,0,0,1,12.414,6.192Zm4.307-.782A15.281,15.281,0,0,0,13.457.926,11.14,11.14,0,0,1,19.74,3.954,14.393,14.393,0,0,1,16.721,5.409Zm-9.442,0A14.38,14.38,0,0,1,4.261,3.954,11.139,11.139,0,0,1,10.543.926,15.275,15.275,0,0,0,7.279,5.409Zm-.647,7h4.954v4.154a15.262,15.262,0,0,0-4,.638A14.451,14.451,0,0,1,6.632,12.414ZM11.586,17.4v5.511A14.471,14.471,0,0,1,7.91,17.975,14.428,14.428,0,0,1,11.586,17.4Zm.828,5.511V17.4a14.427,14.427,0,0,1,3.676.579A14.468,14.468,0,0,1,12.414,22.906Zm0-6.338V12.414h4.954a14.446,14.446,0,0,1-.957,4.792A15.239,15.239,0,0,0,12.414,16.567ZM18.2,12.414h4.967a11.118,11.118,0,0,1-2.61,6.765A15.258,15.258,0,0,0,17.2,17.469,15.282,15.282,0,0,0,18.2,12.414ZM4.01,19.8a14.421,14.421,0,0,1,3.11-1.565,15.269,15.269,0,0,0,3.422,4.841A11.149,11.149,0,0,1,4.01,19.8Zm9.447,3.276a15.26,15.26,0,0,0,3.422-4.841A14.43,14.43,0,0,1,19.99,19.8,11.149,11.149,0,0,1,13.457,23.074Z" transform="translate(11631 2339)"/>
</svg>
