<svg xmlns="http://www.w3.org/2000/svg" viewBox="8537 1013 15 16.781">
  <defs>
    <style>
      .cls-1 {
        fill: #fff;
      }
    </style>
  </defs>
  <g id="remove_favorite" data-name="remove favorite" transform="translate(8527.223 1008)">
    <path id="Path_408" data-name="Path 408" class="cls-1" d="M17.222,15.236a3.9,3.9,0,0,0-.331.581l-.384-.2L12.348,17.8l.794-4.631L9.777,9.89l4.65-.676L16.507,5l2.08,4.214,4.65.676-3.365,3.28.069.4a3.89,3.89,0,0,0-.653.142l-.133-.775,2.647-2.58-3.658-.532L16.507,6.509,14.871,9.824l-3.658.532,2.647,2.58-.625,3.643,3.272-1.72Zm7.555,2.623a3.923,3.923,0,1,0-3.923,3.923A3.928,3.928,0,0,0,24.777,17.858Zm-.668,0A3.255,3.255,0,1,1,20.854,14.6,3.259,3.259,0,0,1,24.109,17.858Zm-.939-.334H18.538v.668H23.17Z"/>
  </g>
</svg>
