<svg xmlns="http://www.w3.org/2000/svg" viewBox="1463.5 159.5 22 23.468">
  <defs>
    <style>
      .cls-1 {
        fill: none;
        stroke: #fff;
      }
    </style>
  </defs>
  <g id="to-do" transform="translate(1450.974 152.25)">
    <path id="Path_409" data-name="Path 409" class="cls-1" d="M14.1,7.75a1,1,0,0,0-1.07.9v20.67a1,1,0,0,0,1.07.9,1,1,0,0,0,1.067-.9V8.649A.993.993,0,0,0,14.1,7.75Z"/>
    <path id="Path_410" data-name="Path 410" class="cls-1" d="M42.518,17.59V22.9a8.691,8.691,0,0,1-6.831,2.381,17.1,17.1,0,0,1-3.847-1.623c-1.808-.8-3.916-.591-6.41.658V13.891a8.676,8.676,0,0,1,6.83-2.381,17.176,17.176,0,0,1,3.846,1.624c1.809.8,3.916.588,6.411-.657v6.855" transform="translate(-8.492 -2.825)"/>
  </g>
</svg>
