<svg xmlns="http://www.w3.org/2000/svg" viewBox="5554.125 31.625 14.75 11.75">
  <defs>
    <style>
      .cls-1 {
        fill: none;
        stroke: #fff;
        stroke-width: 0.75px;
      }
    </style>
  </defs>
  <path id="view_case_list" data-name="view case list" class="cls-1" d="M12.833,16a1,1,0,0,0-1,1v1H8.667A.665.665,0,0,0,8,18.667v.818l.208.177A11.255,11.255,0,0,0,15,21.667a11.255,11.255,0,0,0,6.792-2.005L22,19.484v-.818A.665.665,0,0,0,21.333,18H18.167V17a1,1,0,0,0-1-1Zm0,.667h4.333A.326.326,0,0,1,17.5,17v1h-5V17A.326.326,0,0,1,12.833,16.667ZM8,20.344v5.99A.665.665,0,0,0,8.667,27H21.333A.665.665,0,0,0,22,26.333v-5.99a11.461,11.461,0,0,1-5.833,1.943v.547a.333.333,0,0,1-.333.333H14.167a.333.333,0,0,1-.333-.333v-.547A11.461,11.461,0,0,1,8,20.344Z" transform="translate(5546.5 16)"/>
</svg>
